<svg xmlns="http://www.w3.org/2000/svg" viewBox="0 0 1200 600" width="1200" height="600">
<defs>
<linearGradient id="bg" x1="0%" y1="0%" x2="100%" y2="100%">
<stop offset="0%" stop-color="#0a0a0a"/><stop offset="50%" stop-color="#1a0b2e"/><stop offset="100%" stop-color="#0a0a0a"/>
</linearGradient>
<linearGradient id="accent" x1="0%" y1="0%" x2="100%" y2="0%">
<stop offset="0%" stop-color="#00ffe1"/><stop offset="50%" stop-color="#8338ec"/><stop offset="100%" stop-color="#ff006e"/>
</linearGradient>
<filter id="glow" x="-50%" y="-50%" width="200%" height="200%">
<feGaussianBlur stdDeviation="2.5" result="b"/><feMerge><feMergeNode in="b"/><feMergeNode in="SourceGraphic"/></feMerge>
</filter>
</defs>
<rect width="1200" height="600" rx="14" fill="url(#bg)"/>
<rect x="0.5" y="0.5" width="1199" height="599" rx="13.5" fill="none" stroke="#00ffe1" stroke-opacity="0.25"/>
<rect x="0" y="0" width="1200" height="46" rx="14" fill="#000000" fill-opacity="0.45"/>
<rect x="0" y="32" width="1200" height="14" fill="#000000" fill-opacity="0.45"/>
<rect x="0" y="45" width="1200" height="1" fill="url(#accent)"/>
<g><circle cx="26" cy="23" r="5" fill="#00ffe1"/><circle cx="44" cy="23" r="5" fill="#8338ec"/><circle cx="62" cy="23" r="5" fill="#ff006e"/></g>
<text x="86" y="28" font-family="JetBrains Mono, Consolas, monospace" font-size="13" font-weight="600" fill="#ffffff" opacity="0.85" letter-spacing="1">~/profile — ./whoami.sh</text>
<text x="1178" y="28" font-family="JetBrains Mono, Consolas, monospace" font-size="11" font-weight="700" fill="#00ffe1" text-anchor="end" opacity="0.7" letter-spacing="2">◉ REC</text>

<g stroke="#00ffe1" stroke-opacity="0.05" stroke-width="1"><line x1="0" y1="106" x2="1200" y2="106"/><line x1="0" y1="166" x2="1200" y2="166"/><line x1="0" y1="226" x2="1200" y2="226"/><line x1="0" y1="286" x2="1200" y2="286"/><line x1="0" y1="346" x2="1200" y2="346"/><line x1="0" y1="406" x2="1200" y2="406"/><line x1="0" y1="466" x2="1200" y2="466"/><line x1="0" y1="526" x2="1200" y2="526"/><line x1="0" y1="586" x2="1200" y2="586"/><line x1="60" y1="46" x2="60" y2="600"/><line x1="120" y1="46" x2="120" y2="600"/><line x1="180" y1="46" x2="180" y2="600"/><line x1="240" y1="46" x2="240" y2="600"/><line x1="300" y1="46" x2="300" y2="600"/><line x1="360" y1="46" x2="360" y2="600"/><line x1="420" y1="46" x2="420" y2="600"/><line x1="480" y1="46" x2="480" y2="600"/><line x1="540" y1="46" x2="540" y2="600"/><line x1="600" y1="46" x2="600" y2="600"/><line x1="660" y1="46" x2="660" y2="600"/><line x1="720" y1="46" x2="720" y2="600"/><line x1="780" y1="46" x2="780" y2="600"/><line x1="840" y1="46" x2="840" y2="600"/><line x1="900" y1="46" x2="900" y2="600"/><line x1="960" y1="46" x2="960" y2="600"/><line x1="1020" y1="46" x2="1020" y2="600"/><line x1="1080" y1="46" x2="1080" y2="600"/><line x1="1140" y1="46" x2="1140" y2="600"/></g>
<rect x="36" y="70" width="552" height="268" rx="10" fill="#000000" fill-opacity="0.30" stroke="#00ffe1" stroke-opacity="0.35"/><rect x="52" y="86" width="4" height="26" rx="2" fill="#00ffe1"/><text x="66" y="104" font-family="JetBrains Mono, Consolas, monospace" font-size="13" font-weight="700" fill="#00ffe1" letter-spacing="2">IDENTITY</text>
<text x="56" y="130" font-family="JetBrains Mono, Consolas, monospace" font-size="10" font-weight="700" fill="#00ffe1" opacity="0.65" letter-spacing="1.5">ROLE</text>
<text x="180" y="130" font-family="JetBrains Mono, Consolas, monospace" font-size="14" font-weight="500" fill="#ffffff" opacity="1">Senior Unity / XR Engineer</text>
<text x="180" y="149" font-family="JetBrains Mono, Consolas, monospace" font-size="14" font-weight="400" fill="#ffffff" opacity="0.7">Full-Stack · AI / LLM</text>
<text x="56" y="185" font-family="JetBrains Mono, Consolas, monospace" font-size="10" font-weight="700" fill="#00ffe1" opacity="0.65" letter-spacing="1.5">LOCATION</text>
<text x="180" y="185" font-family="JetBrains Mono, Consolas, monospace" font-size="14" font-weight="500" fill="#ffffff" opacity="1">Veliky Novgorod, RU → remote worldwide</text>
<text x="56" y="221" font-family="JetBrains Mono, Consolas, monospace" font-size="10" font-weight="700" fill="#00ffe1" opacity="0.65" letter-spacing="1.5">EXPERIENCE</text>
<text x="180" y="221" font-family="JetBrains Mono, Consolas, monospace" font-size="14" font-weight="500" fill="#ffffff" opacity="1">7 years cumulative · parallel since 2020</text>
<text x="56" y="257" font-family="JetBrains Mono, Consolas, monospace" font-size="10" font-weight="700" fill="#00ffe1" opacity="0.65" letter-spacing="1.5">EDUCATION</text>
<text x="180" y="257" font-family="JetBrains Mono, Consolas, monospace" font-size="14" font-weight="500" fill="#ffffff" opacity="1">MSc · Artificial Intelligence</text>
<text x="56" y="293" font-family="JetBrains Mono, Consolas, monospace" font-size="10" font-weight="700" fill="#00ffe1" opacity="0.65" letter-spacing="1.5">LANGUAGES</text>
<text x="180" y="293" font-family="JetBrains Mono, Consolas, monospace" font-size="14" font-weight="500" fill="#ffffff" opacity="1">RU native · EN C1 advanced</text>
<rect x="612" y="70" width="552" height="268" rx="10" fill="#000000" fill-opacity="0.30" stroke="#ff006e" stroke-opacity="0.35"/><rect x="628" y="86" width="4" height="26" rx="2" fill="#ff006e"/><text x="642" y="104" font-family="JetBrains Mono, Consolas, monospace" font-size="13" font-weight="700" fill="#ff006e" letter-spacing="2">ENGAGEMENTS</text>
<circle cx="638" cy="124" r="4.5" fill="#00ffe1"/>
<line x1="638" y1="131" x2="638" y2="164" stroke="#00ffe1" stroke-opacity="0.22" stroke-width="1.5"/>
<text x="656" y="128" font-family="JetBrains Mono, Consolas, monospace" font-size="13.5" font-weight="600" fill="#ffffff">Industrial enterprise · chemical mfg</text>
<text x="1144" y="128" font-family="JetBrains Mono, Consolas, monospace" font-size="11" font-weight="700" fill="#00ffe1" text-anchor="end" opacity="0.95">Aug 2025 →</text>
<text x="656" y="145" font-family="JetBrains Mono, Consolas, monospace" font-size="12" font-weight="400" fill="#ffffff" opacity="0.62">Programmer · leading the VR/XR track</text>
<circle cx="638" cy="165" r="4.5" fill="#00ffe1"/>
<line x1="638" y1="172" x2="638" y2="205" stroke="#00ffe1" stroke-opacity="0.22" stroke-width="1.5"/>
<text x="656" y="169" font-family="JetBrains Mono, Consolas, monospace" font-size="13.5" font-weight="600" fill="#ffffff">Contract work</text>
<text x="1144" y="169" font-family="JetBrains Mono, Consolas, monospace" font-size="11" font-weight="700" fill="#00ffe1" text-anchor="end" opacity="0.95">Apr 2025 →</text>
<text x="656" y="186" font-family="JetBrains Mono, Consolas, monospace" font-size="12" font-weight="400" fill="#ffffff" opacity="0.62">Backend developer</text>
<circle cx="638" cy="206" r="4.5" fill="#8338ec" fill-opacity="0.45"/>
<line x1="638" y1="213" x2="638" y2="246" stroke="#8338ec" stroke-opacity="0.22" stroke-width="1.5"/>
<text x="656" y="210" font-family="JetBrains Mono, Consolas, monospace" font-size="13.5" font-weight="600" fill="#ffffff">XR studio</text>
<text x="1144" y="210" font-family="JetBrains Mono, Consolas, monospace" font-size="11" font-weight="700" fill="#8338ec" text-anchor="end" opacity="0.95">Dec 2023 – Jun 2026</text>
<text x="656" y="227" font-family="JetBrains Mono, Consolas, monospace" font-size="12" font-weight="400" fill="#ffffff" opacity="0.62">Unity Developer</text>
<circle cx="638" cy="247" r="4.5" fill="#8338ec" fill-opacity="0.45"/>
<line x1="638" y1="254" x2="638" y2="287" stroke="#8338ec" stroke-opacity="0.22" stroke-width="1.5"/>
<text x="656" y="251" font-family="JetBrains Mono, Consolas, monospace" font-size="13.5" font-weight="600" fill="#ffffff">Mobile studio</text>
<text x="1144" y="251" font-family="JetBrains Mono, Consolas, monospace" font-size="11" font-weight="700" fill="#8338ec" text-anchor="end" opacity="0.95">Aug 2023 – Nov 2024</text>
<text x="656" y="268" font-family="JetBrains Mono, Consolas, monospace" font-size="12" font-weight="400" fill="#ffffff" opacity="0.62">Unity Developer</text>
<circle cx="638" cy="288" r="4.5" fill="#8338ec" fill-opacity="0.45"/>

<text x="656" y="292" font-family="JetBrains Mono, Consolas, monospace" font-size="13.5" font-weight="600" fill="#ffffff">University engineering school</text>
<text x="1144" y="292" font-family="JetBrains Mono, Consolas, monospace" font-size="11" font-weight="700" fill="#8338ec" text-anchor="end" opacity="0.95">Jan 2020 – Jun 2025</text>
<text x="656" y="309" font-family="JetBrains Mono, Consolas, monospace" font-size="12" font-weight="400" fill="#ffffff" opacity="0.62">Unity Developer</text>
<rect x="36" y="356" width="1128" height="132" rx="10" fill="#000000" fill-opacity="0.30" stroke="#8338ec" stroke-opacity="0.35"/><rect x="52" y="372" width="4" height="26" rx="2" fill="#8338ec"/><text x="66" y="390" font-family="JetBrains Mono, Consolas, monospace" font-size="13" font-weight="700" fill="#8338ec" letter-spacing="2">SPECIALTIES</text>
<rect x="278" y="404" width="191.6" height="26" rx="13" fill="#00ffe1" fill-opacity="0.10" stroke="#00ffe1" stroke-opacity="0.55"/><text x="291" y="421.5" font-family="JetBrains Mono, Consolas, monospace" font-size="12" font-weight="500" fill="#ffffff" opacity="0.92">VR / AR / MR simulators</text><rect x="481.6" y="404" width="177.2" height="26" rx="13" fill="#ff006e" fill-opacity="0.10" stroke="#ff006e" stroke-opacity="0.55"/><text x="494.6" y="421.5" font-family="JetBrains Mono, Consolas, monospace" font-size="12" font-weight="500" fill="#ffffff" opacity="0.92">Cross-platform mobile</text><rect x="670.8" y="404" width="126.8" height="26" rx="13" fill="#8338ec" fill-opacity="0.10" stroke="#8338ec" stroke-opacity="0.55"/><text x="683.8" y="421.5" font-family="JetBrains Mono, Consolas, monospace" font-size="12" font-weight="500" fill="#ffffff" opacity="0.92">Full-stack web</text><rect x="809.6" y="404" width="112.4" height="26" rx="13" fill="#00ffe1" fill-opacity="0.10" stroke="#00ffe1" stroke-opacity="0.55"/><text x="822.6" y="421.5" font-family="JetBrains Mono, Consolas, monospace" font-size="12" font-weight="500" fill="#ffffff" opacity="0.92">Trading bots</text>
<rect x="278" y="442" width="141.2" height="26" rx="13" fill="#ff006e" fill-opacity="0.10" stroke="#ff006e" stroke-opacity="0.55"/><text x="291" y="459.5" font-family="JetBrains Mono, Consolas, monospace" font-size="12" font-weight="500" fill="#ffffff" opacity="0.92">Node.js backends</text><rect x="431.2" y="442" width="148.4" height="26" rx="13" fill="#8338ec" fill-opacity="0.10" stroke="#8338ec" stroke-opacity="0.55"/><text x="444.2" y="459.5" font-family="JetBrains Mono, Consolas, monospace" font-size="12" font-weight="500" fill="#ffffff" opacity="0.92">Databases &amp; infra</text><rect x="591.6" y="442" width="155.6" height="26" rx="13" fill="#00ffe1" fill-opacity="0.10" stroke="#00ffe1" stroke-opacity="0.55"/><text x="604.6" y="459.5" font-family="JetBrains Mono, Consolas, monospace" font-size="12" font-weight="500" fill="#ffffff" opacity="0.92">On-prem LLM agents</text><rect x="759.2" y="442" width="162.8" height="26" rx="13" fill="#ff006e" fill-opacity="0.10" stroke="#ff006e" stroke-opacity="0.55"/><text x="772.2" y="459.5" font-family="JetBrains Mono, Consolas, monospace" font-size="12" font-weight="500" fill="#ffffff" opacity="0.92">Digital twins · BIM</text>
<rect x="36" y="506" width="1128" height="56" rx="10" fill="#000000" fill-opacity="0.30" stroke="#00ffe1" stroke-opacity="0.28"/>
<text x="600" y="530" font-family="JetBrains Mono, Consolas, monospace" font-size="10" font-weight="700" fill="#00ffe1" text-anchor="middle" opacity="0.6" letter-spacing="2">OWNS END TO END</text>
<text x="600" y="550" font-family="JetBrains Mono, Consolas, monospace" font-size="12.5" font-weight="500" fill="#ffffff" text-anchor="middle" opacity="0.85">architecture  •  client  •  backend  •  database  •  infrastructure  •  CI/CD  •  store release  •  production support</text>
<text x="600" y="583" font-family="JetBrains Mono, Consolas, monospace" font-size="12" font-weight="500" fill="#00ffe1" text-anchor="middle" opacity="0.75">“Ship from architecture to release. Own the full cycle.”</text>
</svg>